# AST/ASF file generated using VICON BodyLanguage
# -----------------------------------------------
:version 1.10
:name VICON
:units
  mass 1.0
  length 0.45
  angle deg
:documentation
   .ast/.asf automatically generated from VICON data using
   VICON BodyBuilder and BodyLanguage model FoxedUp or BRILLIANT.MOD
:root
   order TX TY TZ RX RY RZ
   axis XYZ
   position 0 0 0  
   orientation 0 0 0 
:bonedata
  begin
     id 1 
     name lhipjoint
     direction 0.660183 -0.676772 0.325788 
     length 2.75133 
     axis 0 0 0  XYZ
  end
  begin
     id 2 
     name lfemur
     direction 0.34202 -0.939693 0  
     length 7.70317  
     axis 0 0 20  XYZ
    dof rx ry rz
    limits (-160.0 20.0)
           (-70.0 70.0)
           (-60.0 70.0)
  end
  begin
     id 3 
     name ltibia
     direction 0.342105 -0.939662 0   
     length 7.18701   
     axis 0 0 20   XYZ
    dof rx
    limits (-10.0 170.0)
  end
  begin
     id 4 
     name lfoot
     direction 0.14163 -0.389126 0.910232   
     length 2.41719   
     axis -90 7.62852e-016 20   XYZ
    dof rx rz
    limits (-45.0 90.0)
           (-70.0 20.0)
  end
  begin
     id 5 
     name ltoes
     direction 1.53533e-011 -4.21926e-011 1   
     length 1.18611   
     axis -90 7.62852e-016 20   XYZ
    dof rx
    limits (-90.0 20.0)
  end
  begin
     id 6 
     name rhipjoint
     direction -0.6658 -0.67229 0.323631   
     length 2.76968  
     axis 0 0 0  XYZ 
  end
  begin
     id 7 
     name rfemur
     direction -0.34202 -0.939693 0   
     length 7.92547   
     axis 0 0 -20   XYZ
    dof rx ry rz
    limits (-160.0 20.0)
           (-70.0 70.0)
           (-70.0 60.0)
  end
  begin
     id 8 
     name rtibia
     direction -0.342022 -0.939692 0   
     length 7.22641   
     axis 0 0 -20   XYZ
    dof rx
    limits (-10.0 170.0)
 end
 begin
     id 9 
     name rfoot
     direction -0.105675 -0.29034 0.951071   
     length 2.48149  
     axis -90 -7.62852e-016 -20   XYZ
    dof rx rz
    limits (-45.0 90.0)
           (-20.0 70.0)
  end
  begin
     id 10 
     name rtoes
     direction -1.5349e-011 -4.21859e-011 1   
     length 1.23343   
     axis -90 -7.62852e-016 -20   XYZ
    dof rx
    limits (-90.0 20.0)
  end
  begin
     id 11 
     name lowerback
     direction 0.0104173 0.993624 -0.112266   
     length 2.00527   
     axis 0 0 0   XYZ
    dof rx ry rz
    limits (-20.0 45.0)
           (-30.0 30.0)
           (-30.0 30.0)
  end
  begin
     id 12 
     name upperback
     direction 0.00733149 0.999856 -0.0152913   
     length 2.01385   
     axis 0 0 0   XYZ
    dof rx ry rz
    limits (-20.0 45.0)
           (-30.0 30.0)
           (-30.0 30.0)
  end
  begin
     id 13 
     name thorax
     direction 0.0026304 0.999318 0.036841   
     length 2.03734   
     axis 0 0 0   XYZ
    dof rx ry rz
    limits (-20.0 45.0)
           (-30.0 30.0)
           (-30.0 30.0)
  end
  begin
     id 14 
     name lowerneck
     direction 0.0293154 0.998757 0.0403082   
     length 1.65303   
     axis 0 0 0   XYZ
    dof rx ry rz
    limits (-20.0 45.0)
           (-30.0 30.0)
           (-30.0 30.0)
  end
  begin
     id 15 
     name upperneck
     direction -0.0376619 0.998184 -0.0470083   
     length 1.60926   
     axis 0 0 0   XYZ
    dof rx ry rz
    limits (-20.0 45.0)
           (-30.0 30.0)
           (-30.0 30.0)
  end
  begin
     id 16
     name head
     direction -0.0170133 0.999635 -0.0209778  
     length 1.73625  
     axis 0 0 0   XYZ
    dof rx ry rz
    limits (-20.0 45.0)
           (-30.0 30.0)
           (-30.0 30.0)
  end
  begin
     id 17 
     name lclavicle
     direction 0.919857 0.39181 -0.0186333  
     length 3.75313  
     axis 0 0 0   XYZ
    dof ry rz
    limits (-20.0 10.0)
           (0.0 20.0)
  end
  begin
     id 18 
     name lhumerus
     direction 1 -4.48988e-011 1.44029e-027   
     length 5.49313   
     axis 180 -30 -90   XYZ
    dof rx ry rz
    limits (-60.0 90.0)
           (-90.0 90.0)
           (-90.0 90.0)
  end
  begin
     id 19
     name lradius
     direction 1 -4.48924e-011 7.46281e-027   
     length 3.29037   
     axis 180 -30 -90   XYZ
    dof rx
    limits (-10.0 170.0)
  end
  begin
     id 20
     name lwrist
     direction 1 -4.48955e-011 2.19879e-026   
     length 1.64519   
     axis -1.34358e-014 90 90   XYZ
    dof ry
    limits (-180.0 0.0)
 end
  begin
     id 21 
     name lhand
     direction 1 -4.48978e-011 4.39747e-026   
     length 0.729656   
     axis -2.80598e-014 90 90   XYZ
    dof rx rz
    limits (-90.0 90.0)
           (-45.0 45.0)
  end
  begin
     id 22 
     name lfingers
     direction 1 -4.49071e-011 8.79411e-026   
     length 0.588268   
     axis -5.61193e-014 90 90   XYZ
    dof rx
    limits (0.0 90.0)
  end
  begin
     id 23
     name lthumb
     direction 0.707107 -6.34817e-011 0.707107   
     length 0.844638   
     axis -90 45 -9.86923e-015   XYZ
    dof rx rz
    limits (-45.0 45.0)
           (-45.0 45.0)
  end
  begin
     id 24 
     name rclavicle
     direction -0.919898 0.388279 0.0550233   
     length 3.7171  
     axis 0 0 0   XYZ 
    dof ry rz
    limits (-10.0 20.0)
           (-20.0 0.0)
  end
  begin
     id 25 
     name rhumerus
     direction -1 -4.48968e-011 9.98372e-028  
     length 5.23684   
     axis 180 30 90   XYZ
    dof rx ry rz
    limits (-90.0 60.0)
           (-90.0 90.0)
           (-90.0 90.0)
  end
  begin
     id 26 
     name rradius
     direction -1 -4.48956e-011 1.01023e-026   
     length 3.38251   
     axis 180 30 90   XYZ
    dof rx
    limits (-10.0 170.0)
  end
  begin
     id 27 
     name rwrist
     direction -1 -4.4892e-011 2.19886e-026   
     length 1.69126   
     axis -1.34358e-014 -90 -90   XYZ
    dof ry
    limits (-180.0 0.0)
  end
  begin
     id 28
     name rhand
     direction -1 -4.49024e-011 4.39727e-026   
     length 0.691454   
     axis -2.80598e-014 -90 -90   XYZ
    dof rx rz
    limits (-90.0 90.0)
           (-45.0 45.0)
  end
  begin
     id 29
     name rfingers
     direction -1 -4.49097e-011 8.79388e-026   
     length 0.557468   
     axis -5.61193e-014 -90 -90   XYZ
    dof rx
    limits (0.0 90.0)
  end
  begin
     id 30
     name rthumb
     direction -0.707107 -6.34938e-011 0.707107   
     length 0.800416   
     axis -90 -45 9.86923e-015   XYZ
    dof rx rz
    limits (-45.0 45.0)
           (-45.0 45.0)
  end
:hierarchy
  begin
    root lhipjoint rhipjoint lowerback
    lhipjoint lfemur
    lfemur ltibia
    ltibia lfoot
    lfoot ltoes
    rhipjoint rfemur
    rfemur rtibia
    rtibia rfoot
    rfoot rtoes
    lowerback upperback
    upperback thorax
    thorax lowerneck lclavicle rclavicle
    lowerneck upperneck
    upperneck head
    lclavicle lhumerus
    lhumerus lradius
    lradius lwrist
    lwrist lhand lthumb
    lhand lfingers
    rclavicle rhumerus
    rhumerus rradius
    rradius rwrist
    rwrist rhand rthumb
    rhand rfingers
  end

#!OML:ASF H:\BabyWalks\Project 1\Capture day 1\Session 1\baby.ASF
:FULLY-SPECIFIED
:DEGREES
213
root -24.7681 17.3653 -3.44985 -38.5574 85.2957 -48.2802
lowerback 18.7856 1.74209 5.54593
upperback 4.19859 3.9262 3.92221
thorax -5.89089 1.9765 0.127197
lowerneck -2.71686 -0.973011 5.62392
upperneck -8.22975 -1.82432 -10.834
head -2.11357 -0.732743 -4.18137
rclavicle 5.48646e-014 3.18055e-014
rhumerus -50.1445 9.87069 -80.2738
rradius 46.4734
rwrist -0.75888
rhand -13.4831 -17.8595
rfingers 7.12502
rthumb 12.6275 -47.4578
lclavicle 5.48646e-014 3.18055e-014
lhumerus -71.2436 -7.29932 81.476
lradius 52.5179
lwrist -4.47615
lhand 10.8633 9.80795
lfingers 7.12502
lthumb 35.9447 36.138
rfemur -3.06113 17.0792 23.4314
rtibia 24.6273
rfoot -24.4462 5.45021
rtoes -5.54549
lfemur -32.3953 -1.68766 -11.3283
ltibia 62.2728
lfoot -23.5309 -18.0754
ltoes -13.4568
214
root -24.5799 17.3987 -3.4442 -42.2702 85.503 -52.0712
lowerback 18.8416 1.8238 5.58331
upperback 4.15905 4.0373 3.8246
thorax -5.94967 2.02592 -0.0264424
lowerneck -2.93935 -1.01108 5.49432
upperneck -7.58976 -1.80443 -10.3474
head -2.11217 -0.769054 -4.44159
rclavicle 2.38542e-015 -1.27222e-014
rhumerus -50.4929 10.0708 -80.6337
rradius 47.1002
rwrist -1.25417
rhand -13.3524 -17.7853
rfingers 7.12502
rthumb 12.7535 -47.3758
lclavicle 2.38542e-015 -1.27222e-014
lhumerus -71.6395 -7.56037 81.0842
lradius 52.4345
lwrist -4.77452
lhand 11.2057 9.69408
lfingers 7.12502
lthumb 36.269 35.944
rfemur -1.7108 16.6119 23.6069
rtibia 23.0017
rfoot -23.3333 5.95808
rtoes -5.5701
lfemur -33.3847 -2.35889 -11.2172
ltibia 60.3801
lfoot -23.7689 -17.3449
ltoes -13.772
215
root -24.3882 17.4344 -3.43875 -45.9596 85.6685 -55.8555
lowerback 18.878 1.90962 5.59629
upperback 4.11989 4.14498 3.7085
thorax -5.99742 2.07375 -0.184677
lowerneck -3.17185 -1.05382 5.35464
upperneck -7.13198 -1.83306 -10.1684
head -1.9138 -0.799527 -4.34124
rclavicle -1.74931e-014 -6.36111e-015
rhumerus -50.8405 10.2997 -81.0146
rradius 47.7498
rwrist -1.77577
rhand -13.1683 -17.6647
rfingers 7.12502
rthumb 12.9309 -47.2441
lclavicle -1.74931e-014 -6.36111e-015
lhumerus -71.9824 -7.79586 80.6359
lradius 52.4497
lwrist -4.79381
lhand 11.4089 9.57784
lfingers 7.12502
lthumb 36.4613 35.7797
rfemur -0.327149 16.1515 23.7669
rtibia 21.2528
rfoot -22.0634 6.4777
rtoes -5.60405
lfemur -34.2957 -3.03322 -11.0859
ltibia 58.2955
lfoot -23.8906 -16.6142
ltoes -13.9581
216
root -24.1929 17.4715 -3.43295 -49.5145 85.7961 -59.5168
lowerback 18.8887 1.99898 5.57396
upperback 4.0895 4.24582 3.57583
thorax -6.02286 2.1192 -0.337963
lowerneck -3.40878 -1.09485 5.20381
upperneck -6.68324 -1.85831 -9.936
head -1.71763 -0.828843 -4.22116
rclavicle 1.59028e-015 3.02153e-014
rhumerus -51.1672 10.5408 -81.4018
rradius 48.4143
rwrist -2.32087
rhand -12.9036 -17.5126
rfingers 7.12502
rthumb 13.1861 -47.0756
lclavicle 1.59028e-015 3.02153e-014
lhumerus -72.2615 -7.98864 80.1158
lradius 52.57
lwrist -4.5319
lhand 11.546 9.49703
lfingers 7.12502
lthumb 36.5911 35.6661
rfemur 1.10675 15.7301 23.9158
rtibia 19.3644
rfoot -20.6443 6.97509
rtoes -5.64373
lfemur -35.1171 -3.69893 -10.9333
ltibia 56.0517
lfoot -23.9067 -15.9044
ltoes -13.9997
217
root -23.994 17.509 -3.42707 -52.6147 85.8855 -62.7403
lowerback 18.8624 2.09887 5.51727
upperback 4.0689 4.34726 3.41725
thorax -6.01789 2.16599 -0.497708
lowerneck -3.6246 -1.14511 5.06017
upperneck -6.2702 -1.89698 -9.65018
head -1.53878 -0.864469 -4.08546
rclavicle 4.05521e-014 3.57812e-014
rhumerus -51.4679 10.7829 -81.7998
rradius 49.0868
rwrist -2.90499
rhand -12.5599 -17.3366
rfingers 7.12502
rthumb 13.5174 -46.8779
lclavicle 4.05521e-014 3.57812e-014
lhumerus -72.4661 -8.14438 79.5098
lradius 52.7898
lwrist -4.058
lhand 11.6667 9.47765
lfingers 7.12502
lthumb 36.7054 35.6177
rfemur 2.58844 15.3398 24.0446
rtibia 17.3305
rfoot -19.0793 7.42505
rtoes -5.87999
lfemur -35.8595 -4.34388 -10.7653
ltibia 53.6892
lfoot -23.8573 -15.2074
ltoes -13.9655
218
root -23.7921 17.5443 -3.4209 -55.1366 85.9415 -65.3977
lowerback 18.7861 2.20986 5.40878
upperback 4.06595 4.4469 3.24455
thorax -5.96957 2.21414 -0.639866
lowerneck -3.7995 -1.20335 4.91858
upperneck -5.91875 -1.94866 -9.31554
head -1.38886 -0.904697 -3.93499
rclavicle -5.1684e-015 -7.15625e-015
rhumerus -51.7285 11.0267 -82.1901
rradius 49.7438
rwrist -3.48902
rhand -12.1817 -17.1212
rfingers 7.12502
rthumb 13.8819 -46.6378
lclavicle -5.1684e-015 -7.15625e-015
lhumerus -72.5873 -8.24204 78.8261
lradius 53.0937
lwrist -3.45331
lhand 11.7701 9.58368
lfingers 7.12502
lthumb 36.8032 35.6988
rfemur 4.12548 15.0042 24.1572
rtibia 15.1482
rfoot -17.3686 7.82895
rtoes -6.15233
lfemur -36.5135 -4.95592 -10.5818
ltibia 51.2567
lfoot -23.7713 -14.5211
ltoes -13.8494
219
root -23.5872 17.5766 -3.41424 -56.9936 85.9693 -67.3962
lowerback 18.6869 2.32829 5.26292
upperback 4.07094 4.54465 3.04459
thorax -5.90074 2.26229 -0.787734
lowerneck -3.95327 -1.2666 4.77045
upperneck -5.60544 -2.00788 -8.90492
head -1.2552 -0.947872 -3.75835
rclavicle -8.74653e-015 -7.15625e-015
rhumerus -51.9593 11.2589 -82.59
rradius 50.3841
rwrist -4.08951
rhand -11.7723 -16.894
rfingers 7.12502
rthumb 14.2764 -46.3833
lclavicle -8.74653e-015 -7.15625e-015
lhumerus -72.6276 -8.29913 78.0558
lradius 53.4596
lwrist -2.78723
lhand 11.8753 9.76426
lfingers 7.12502
lthumb 36.9027 35.8538
rfemur 5.71869 14.731 24.2576
rtibia 12.8241
rfoot -15.5302 8.17292
rtoes -6.4577
lfemur -37.0774 -5.52699 -10.3849
ltibia 48.8099
lfoot -23.6682 -13.846
ltoes -13.6884
